<svg width="260" height="49" viewBox="0 0 260 49" fill="none" xmlns="http://www.w3.org/2000/svg">
<path d="M68.5465 17.0824C68.46 17.2554 68.3735 17.3851 68.2005 17.5148C68.0708 17.6013 67.8978 17.6446 67.7248 17.6446C67.5086 17.6446 67.2923 17.5581 67.1193 17.4283C66.9031 17.2986 66.6436 17.1256 66.3409 16.9526C65.9949 16.7796 65.6489 16.6067 65.2597 16.4769C64.784 16.3472 64.3083 16.2607 63.7893 16.2607C63.3569 16.2607 62.9244 16.3039 62.4919 16.4337C62.1459 16.5202 61.8432 16.6931 61.5405 16.9526C61.281 17.1689 61.0648 17.4283 60.935 17.7311C60.8053 18.0338 60.7621 18.3798 60.7621 18.7257C60.7621 19.1582 60.8918 19.5474 61.1513 19.8934C61.454 20.2394 61.8 20.4989 62.1892 20.6719C62.6649 20.8881 63.1406 21.1043 63.6163 21.2341C64.1353 21.407 64.6975 21.58 65.2597 21.7963C65.8219 21.9693 66.3841 22.2287 66.9031 22.4882C67.4221 22.7477 67.8978 23.0504 68.3302 23.4397C68.7627 23.8289 69.1087 24.3478 69.3682 24.8668C69.6276 25.5155 69.7574 26.2074 69.7574 26.9426C69.7574 27.8076 69.6277 28.6293 69.3249 29.4077C69.0222 30.1429 68.5897 30.8349 67.9843 31.4403C67.3788 32.0458 66.6436 32.4782 65.8652 32.781C64.957 33.1269 63.9623 33.2999 63.0109 33.2567C62.4054 33.2567 61.8 33.2134 61.1945 33.0837C60.5891 32.954 60.0269 32.781 59.4646 32.5647C58.9024 32.3485 58.3835 32.089 57.9078 31.743C57.432 31.4403 56.9996 31.0943 56.6104 30.7051L57.6483 28.9752C57.7348 28.8455 57.8645 28.759 57.9943 28.6725C58.124 28.586 58.297 28.5428 58.47 28.5428C58.7294 28.5428 58.9889 28.6725 59.2052 28.8023C59.4646 28.9752 59.7674 29.1915 60.1133 29.4077C60.5026 29.6672 60.935 29.8402 61.3675 30.0132C61.9297 30.2294 62.4919 30.3159 63.0974 30.2727C63.9623 30.3159 64.8273 30.0564 65.5192 29.5375C66.1247 29.0185 66.4274 28.2401 66.3841 27.4184C66.3841 26.9859 66.2544 26.5102 65.9949 26.1642C65.7354 25.8182 65.3895 25.5587 64.957 25.3425C64.4813 25.1263 64.0056 24.91 63.5298 24.7803C63.0109 24.6073 62.4487 24.4776 61.8865 24.2613C61.3243 24.0884 60.7621 23.8721 60.2431 23.6126C59.7241 23.3532 59.2052 23.0504 58.8159 22.618C58.3835 22.1855 58.0375 21.6665 57.778 21.1043C57.5185 20.3691 57.3888 19.6339 57.3888 18.8555C57.3888 17.3851 57.9943 15.9579 59.0754 14.9633C59.6376 14.4011 60.3296 14.0118 61.0648 13.7091C61.9297 13.3631 62.8379 13.2334 63.7893 13.2334C64.8705 13.2334 65.9517 13.4064 66.9463 13.7524C67.8545 14.0983 68.7195 14.574 69.4114 15.266L68.5465 17.0824Z" fill="#3D4B63"/>
<path d="M83.3801 33.0405H81.8665C81.607 33.0405 81.3475 32.9973 81.1313 32.9108C80.9151 32.781 80.7853 32.5648 80.7421 32.3486L80.4826 31.3539C80.1366 31.6566 79.7906 31.9161 79.4447 32.1756C79.0987 32.3918 78.7527 32.608 78.4067 32.781C78.0608 32.954 77.6715 33.0838 77.2823 33.127C76.8499 33.2135 76.3741 33.2567 75.9417 33.2567C75.3795 33.2567 74.8605 33.1702 74.2983 32.9973C73.8226 32.8675 73.3901 32.608 73.0441 32.3053C72.6982 32.0026 72.3954 31.5701 72.1792 31.1376C71.963 30.6187 71.8765 30.0565 71.8765 29.4943C71.8765 28.9321 72.0495 28.4131 72.3089 27.9374C72.6549 27.3752 73.1306 26.8995 73.6928 26.5535C74.4713 26.0778 75.3362 25.7318 76.2444 25.5156C77.5418 25.2128 78.8825 25.0831 80.1799 25.1263V24.3046C80.2231 23.5694 80.0501 22.8343 79.5744 22.2288C79.1419 21.7531 78.4932 21.4936 77.8878 21.5368C77.4121 21.5368 76.9796 21.5801 76.5471 21.7098C76.2011 21.8396 75.8984 21.9693 75.5957 22.1423L74.8605 22.5748C74.6443 22.7045 74.3848 22.7478 74.1253 22.7478C73.9091 22.7478 73.7361 22.7045 73.5631 22.5748C73.3901 22.445 73.2604 22.3153 73.1739 22.1423L72.5684 21.0611C74.1253 19.634 76.2012 18.8123 78.3202 18.8988C79.0554 18.8988 79.7906 19.0285 80.4826 19.288C81.088 19.5475 81.6503 19.8935 82.0827 20.4124C82.5152 20.8881 82.8612 21.4504 83.0774 22.0991C83.2936 22.791 83.4234 23.5262 83.4234 24.2614L83.3801 33.0405ZM76.8931 30.9647C77.1958 30.9647 77.5418 30.9214 77.8445 30.8782C78.1473 30.8349 78.4067 30.7052 78.6662 30.5754C78.9257 30.4457 79.1852 30.316 79.4014 30.0997C79.6609 29.8835 79.8771 29.6673 80.1366 29.451V27.1157C79.3149 27.1157 78.4932 27.1589 77.7148 27.2887C77.1526 27.3752 76.6336 27.5482 76.1579 27.7644C75.8119 27.8941 75.5092 28.1536 75.293 28.4131C75.12 28.6726 75.0335 28.9321 75.0335 29.2348C74.9902 29.7105 75.1632 30.1862 75.5524 30.4889C75.9417 30.8782 76.4174 31.0079 76.8931 30.9647Z" fill="#3D4B63"/>
<path d="M91.5534 18.9424C92.1156 18.9424 92.6779 18.9856 93.2401 19.1154C93.759 19.2451 94.2347 19.4181 94.6672 19.6343H98.6459V20.8885C98.6459 21.0615 98.6027 21.2345 98.4729 21.3642C98.2999 21.4939 98.127 21.5804 97.9107 21.6237L96.6566 21.8399C96.7431 22.0994 96.8296 22.3156 96.8728 22.5751C96.916 22.8346 96.9593 23.1373 96.9593 23.3968C96.9593 24.0455 96.8296 24.6942 96.5268 25.2564C96.2673 25.8186 95.8781 26.2943 95.4024 26.6836C94.8835 27.0728 94.3212 27.3755 93.6725 27.5918C92.9806 27.808 92.2454 27.8945 91.5102 27.8945C90.9912 27.8945 90.4723 27.8512 89.9966 27.7647C89.5641 28.0242 89.3479 28.3269 89.3479 28.6297C89.3479 28.8892 89.4776 29.1486 89.7371 29.2351C90.0398 29.3649 90.3858 29.4946 90.7318 29.4946C91.2075 29.5379 91.6832 29.5811 92.1589 29.5811C92.6779 29.5811 93.2401 29.6244 93.8023 29.6676C94.3645 29.7108 94.8834 29.7973 95.4457 29.9271C95.9646 30.0136 96.4403 30.2298 96.8728 30.446C97.3053 30.7055 97.6512 31.0082 97.8675 31.4407C98.127 31.9164 98.2567 32.4786 98.2567 33.0409C98.2567 33.6463 98.127 34.295 97.8242 34.814C97.5215 35.4194 97.0458 35.9384 96.5268 36.3709C95.8781 36.8466 95.1862 37.2358 94.4077 37.452C93.4995 37.7548 92.5481 37.8845 91.5534 37.8845C90.6453 37.8845 89.6938 37.798 88.8289 37.5818C88.1369 37.4088 87.4882 37.1493 86.8828 36.7601C86.4071 36.4574 86.0178 36.0681 85.7584 35.5924C85.4989 35.1599 85.3691 34.6842 85.3691 34.2085C85.3691 33.6031 85.5421 33.0409 85.9746 32.5651C86.4503 32.0894 87.0125 31.7002 87.6612 31.484C87.3152 31.311 87.0558 31.0515 86.8395 30.7055C86.6233 30.3163 86.4936 29.9271 86.5368 29.4946C86.5368 29.2784 86.5801 29.0621 86.6233 28.8459C86.7098 28.6297 86.7963 28.4134 86.9693 28.1972C87.1423 27.981 87.3152 27.7647 87.5315 27.5918C87.791 27.3755 88.0504 27.2025 88.3099 27.0728C87.618 26.7268 87.0558 26.2079 86.6665 25.5591C86.2341 24.9104 86.0178 24.132 86.0611 23.3536C86.0178 22.0994 86.6233 20.8452 87.618 20.0668C88.1369 19.6776 88.6992 19.3749 89.3479 19.1586C90.0831 19.0721 90.8182 18.9424 91.5534 18.9424ZM95.2294 33.6463C95.2294 33.3868 95.1429 33.1706 94.9699 32.9544C94.797 32.7814 94.5375 32.6084 94.3212 32.5651C94.0185 32.4786 93.6725 32.3921 93.3266 32.3489C92.9373 32.3057 92.5481 32.2624 92.1157 32.2624H90.8182C90.3858 32.2624 89.9533 32.2192 89.5208 32.1327C89.1749 32.3057 88.8721 32.5651 88.6127 32.8679C88.3964 33.1273 88.2667 33.4733 88.2667 33.8625C88.2667 34.122 88.3099 34.3383 88.4397 34.5545C88.5694 34.7707 88.7856 34.987 89.0451 35.0735C89.3478 35.2464 89.7371 35.3762 90.083 35.4194C90.602 35.5059 91.121 35.5492 91.6399 35.5492C92.1589 35.5492 92.7211 35.5059 93.2401 35.4194C93.6293 35.3329 94.0185 35.2032 94.3645 35.0302C94.624 34.9005 94.8402 34.6842 95.0132 34.4247C95.1429 34.1653 95.2294 33.9058 95.2294 33.6463ZM91.5534 25.7754C91.8994 25.7754 92.2886 25.7321 92.6346 25.6024C92.9373 25.5159 93.1968 25.3429 93.4131 25.1267C93.6293 24.9104 93.759 24.6942 93.8888 24.3915C93.9753 24.0888 94.0618 23.786 94.0618 23.4833C94.105 22.8778 93.8888 22.2724 93.4563 21.8399C92.3751 21.0182 90.8615 21.0182 89.7803 21.8399C89.3479 22.2724 89.1316 22.8778 89.1749 23.4833C89.1749 23.786 89.2181 24.0888 89.3479 24.3915C89.4343 24.651 89.6073 24.9104 89.8236 25.1267C90.0398 25.3429 90.2993 25.5159 90.602 25.6024C90.8615 25.7321 91.2075 25.7754 91.5534 25.7754Z" fill="#3D4B63"/>
<path d="M106.604 18.985C107.425 18.985 108.247 19.1147 109.025 19.4174C109.717 19.6769 110.366 20.1094 110.928 20.6284C111.49 21.1906 111.88 21.8825 112.182 22.6177C112.485 23.4826 112.615 24.3908 112.615 25.299C112.615 25.5152 112.615 25.7315 112.572 25.9477C112.572 26.0775 112.528 26.2072 112.442 26.3369C112.399 26.4234 112.312 26.5099 112.226 26.5532C112.096 26.5964 111.966 26.5964 111.836 26.5964H103.274C103.36 28.0236 103.749 29.0615 104.398 29.7102C105.09 30.4021 106.041 30.7481 107.036 30.7049C107.512 30.7049 107.987 30.6616 108.42 30.5319C108.766 30.4021 109.112 30.2724 109.458 30.0994C109.761 29.9264 110.02 29.7967 110.236 29.6669C110.409 29.5372 110.669 29.494 110.885 29.494C111.015 29.494 111.144 29.5372 111.231 29.5805C111.317 29.6237 111.404 29.7102 111.49 29.7967L112.442 31.0076C112.096 31.4401 111.663 31.786 111.188 32.0888C110.755 32.3915 110.236 32.6077 109.761 32.7807C109.285 32.9537 108.766 33.0834 108.247 33.1699C107.728 33.2564 107.252 33.2564 106.733 33.2564C105.825 33.2564 104.917 33.0834 104.052 32.7807C103.23 32.478 102.495 32.0023 101.89 31.3536C101.241 30.7049 100.765 29.8832 100.462 29.0182C100.073 27.9803 99.9003 26.8991 99.9435 25.818C99.9435 24.9098 100.073 24.0016 100.419 23.1367C100.722 22.3582 101.154 21.623 101.717 20.9743C102.322 20.3256 103.014 19.8499 103.792 19.5039C104.701 19.158 105.652 18.9417 106.604 18.985ZM106.647 21.3636C105.825 21.3203 105.003 21.623 104.355 22.1852C103.749 22.8339 103.403 23.6556 103.317 24.5206H109.588C109.588 24.0881 109.544 23.6989 109.415 23.3097C109.285 22.9204 109.112 22.6177 108.896 22.315C108.636 22.0123 108.333 21.796 107.987 21.623C107.555 21.45 107.122 21.3636 106.647 21.3636Z" fill="#3D4B63"/>
<path d="M116.507 33.0406V13.9688H121.999C122.951 13.9688 123.902 14.0552 124.81 14.3147C125.545 14.4877 126.194 14.8337 126.8 15.2662C127.319 15.6554 127.708 16.2176 127.967 16.7798C128.227 17.4285 128.356 18.1204 128.356 18.8124C128.356 19.3314 128.27 19.8071 128.097 20.2828C127.924 20.7585 127.665 21.191 127.319 21.5802C126.973 21.9694 126.54 22.3586 126.108 22.6181C125.589 22.9208 125.026 23.1371 124.464 23.2668C125.762 23.3966 126.973 23.9155 127.924 24.7805C128.746 25.6021 129.178 26.6833 129.135 27.851C129.135 28.5862 129.005 29.3646 128.702 30.0566C128.4 30.7053 128.011 31.2675 127.448 31.7C126.843 32.1757 126.151 32.5216 125.416 32.7379C124.551 32.9974 123.599 33.1271 122.691 33.0839H116.507V33.0406ZM117.847 22.8776H121.999C122.778 22.8776 123.513 22.7911 124.248 22.5316C124.81 22.3586 125.329 22.0559 125.805 21.6234C126.194 21.2775 126.497 20.845 126.67 20.3693C126.843 19.8936 126.973 19.4179 126.929 18.9421C126.929 17.6447 126.54 16.6933 125.718 16.0014C124.897 15.3094 123.643 15.0067 121.956 15.0067H117.847V22.8776ZM117.847 23.9155V31.9594H122.648C124.335 31.9594 125.589 31.6135 126.454 30.8783C127.319 30.0998 127.794 28.9754 127.751 27.8077C127.751 27.2455 127.665 26.6833 127.405 26.1644C127.189 25.6886 126.843 25.2562 126.41 24.9534C125.935 24.6075 125.416 24.348 124.81 24.175C124.118 24.002 123.383 23.9155 122.648 23.9155H117.847Z" fill="#3D4B63"/>
<path d="M135.492 15.0069C135.492 15.1366 135.449 15.3096 135.406 15.4393C135.319 15.5691 135.233 15.6988 135.146 15.8286C135.017 15.9151 134.93 16.0016 134.757 16.0881C134.454 16.2178 134.152 16.2178 133.849 16.0881C133.719 16.0448 133.589 15.9583 133.46 15.8286C133.373 15.7421 133.287 15.6123 133.2 15.4393C133.157 15.3096 133.114 15.1366 133.114 15.0069C133.114 14.8339 133.157 14.7042 133.2 14.5312C133.33 14.2284 133.546 14.0122 133.849 13.8825C134.152 13.7527 134.454 13.7527 134.757 13.8825C134.887 13.9257 135.017 14.0122 135.146 14.1419C135.276 14.2717 135.363 14.4014 135.406 14.5312C135.492 14.6609 135.492 14.8339 135.492 15.0069ZM134.93 19.6343V33.0408H133.633V19.6343H134.93Z" fill="#3D4B63"/>
<path d="M144.92 19.4177C145.828 19.4177 146.693 19.5907 147.515 19.8934C148.25 20.1961 148.899 20.6718 149.461 21.2773C149.98 21.926 150.412 22.6612 150.672 23.4396C151.234 25.2992 151.234 27.2886 150.672 29.1482C150.412 29.9266 150.023 30.6618 149.461 31.3105C148.942 31.916 148.293 32.3917 147.515 32.6944C145.872 33.3431 144.012 33.3431 142.325 32.6944C141.59 32.3917 140.941 31.916 140.379 31.3105C139.817 30.6618 139.428 29.9266 139.168 29.1482C138.606 27.2886 138.606 25.2992 139.168 23.4396C139.428 22.6612 139.817 21.926 140.379 21.2773C140.898 20.6718 141.547 20.1961 142.282 19.8934C143.19 19.5474 144.055 19.3744 144.92 19.4177ZM144.92 32.2187C145.655 32.2187 146.347 32.089 147.039 31.7863C147.645 31.5268 148.12 31.0943 148.553 30.6186C148.985 30.0564 149.288 29.4509 149.461 28.759C149.85 27.1588 149.85 25.4722 149.461 23.9153C149.288 23.2234 148.985 22.6179 148.553 22.0557C148.164 21.5368 147.645 21.1475 147.039 20.8881C145.699 20.3258 144.185 20.3258 142.844 20.8881C142.239 21.1475 141.763 21.58 141.331 22.099C140.898 22.6612 140.595 23.3099 140.422 23.9586C140.033 25.5587 140.033 27.2453 140.422 28.8022C140.595 29.4942 140.898 30.0996 141.331 30.6618C141.72 31.1808 142.239 31.57 142.844 31.8295C143.493 32.089 144.228 32.2187 144.92 32.2187Z" fill="#3D4B63"/>
<path d="M154.564 33.0405V19.634H155.256C155.472 19.5907 155.645 19.7637 155.645 19.9367L155.775 21.9693C156.38 21.2341 157.072 20.5854 157.937 20.1097C158.759 19.634 159.71 19.3745 160.662 19.4178C161.31 19.4178 162.002 19.5042 162.608 19.7637C163.127 19.98 163.646 20.3259 163.992 20.7584C164.381 21.2341 164.64 21.7531 164.813 22.3585C165.03 23.0505 165.116 23.7424 165.073 24.4776V33.0838H163.776V24.4776C163.819 23.4397 163.516 22.3585 162.911 21.5368C162.348 20.8016 161.44 20.4557 160.273 20.4557C159.408 20.4557 158.543 20.6719 157.807 21.1476C157.029 21.6233 156.337 22.272 155.775 23.0072V33.0838H154.564V33.0405Z" fill="#3D4B63"/>
<path d="M174.371 19.418C175.106 19.418 175.798 19.5477 176.49 19.8072C177.139 20.0667 177.701 20.4559 178.177 20.9316C178.653 21.4506 179.042 22.0993 179.301 22.7912C179.561 23.6129 179.734 24.4346 179.691 25.2995C179.691 25.4293 179.691 25.6023 179.604 25.6888C179.518 25.7753 179.431 25.8185 179.345 25.7753H169.657V26.0347C169.657 26.9429 169.744 27.8511 170.003 28.6728C170.219 29.3647 170.565 30.0134 170.998 30.5757C171.43 31.0946 171.949 31.4838 172.555 31.7433C173.204 32.0028 173.895 32.1325 174.587 32.1325C175.193 32.1325 175.755 32.0893 176.361 31.9163C176.793 31.7866 177.225 31.6136 177.615 31.3973C177.874 31.2676 178.177 31.0946 178.436 30.8784C178.566 30.7486 178.696 30.7054 178.869 30.6621C178.955 30.6621 179.085 30.7054 179.128 30.7919L179.474 31.2244C179.215 31.5271 178.955 31.7866 178.609 32.0028C178.22 32.2623 177.831 32.4353 177.398 32.6083C176.923 32.7812 176.49 32.911 176.015 32.9975C175.539 33.084 175.02 33.1272 174.501 33.1272C173.636 33.1272 172.771 32.9542 171.993 32.6515C171.257 32.3488 170.565 31.8731 170.047 31.2676C169.484 30.6189 169.052 29.8405 168.792 29.0188C168.49 28.0241 168.36 27.0294 168.36 25.9915C168.36 25.0833 168.49 24.1751 168.792 23.3102C169.052 22.5317 169.441 21.8398 169.96 21.1911C170.479 20.5856 171.128 20.1099 171.863 19.8072C172.641 19.591 173.463 19.418 174.371 19.418ZM174.371 20.3694C173.722 20.3694 173.117 20.4559 172.512 20.7154C171.993 20.9316 171.517 21.2343 171.128 21.6668C170.738 22.0993 170.392 22.575 170.176 23.1372C169.917 23.7427 169.744 24.3914 169.701 25.0401H178.523C178.523 24.3914 178.436 23.7427 178.22 23.0939C178.047 22.575 177.744 22.056 177.398 21.6668C177.052 21.2776 176.577 20.9749 176.101 20.7586C175.496 20.4559 174.933 20.3694 174.371 20.3694Z" fill="#3D4B63"/>
<path d="M186.87 33.2566C186.091 33.2998 185.313 33.0403 184.75 32.4781C184.231 31.9592 183.972 31.1807 183.972 30.1428V21.0177H182.069C181.983 21.0177 181.896 20.9745 181.81 20.9312C181.723 20.888 181.723 20.8015 181.723 20.715V20.196L184.015 20.023L184.318 15.2227C184.318 15.1362 184.361 15.0497 184.404 15.0064C184.448 14.9632 184.534 14.9199 184.621 14.9199H185.226V20.0663H189.464V21.0177H185.226V30.0996C185.226 30.4023 185.269 30.7483 185.356 31.051C185.442 31.3105 185.572 31.5267 185.745 31.6997C185.918 31.8727 186.091 32.0024 186.351 32.0889C186.567 32.1754 186.826 32.2187 187.086 32.2187C187.388 32.2187 187.648 32.1754 187.907 32.0889C188.124 32.0024 188.34 31.9159 188.513 31.7862C188.643 31.6997 188.816 31.57 188.945 31.4835C189.032 31.397 189.118 31.3537 189.205 31.3537C189.291 31.3537 189.378 31.397 189.421 31.4835L189.767 32.0457C189.421 32.4349 188.945 32.7376 188.47 32.9539C187.994 33.1268 187.432 33.2566 186.87 33.2566Z" fill="#3D4B63"/>
<path d="M191.108 19.6343H192.103C192.232 19.6343 192.319 19.6776 192.405 19.7208C192.492 19.7641 192.535 19.8506 192.578 19.9371L195.952 30.5325C195.995 30.7488 196.081 30.9218 196.125 31.138L196.211 31.7002C196.254 31.5272 196.298 31.311 196.341 31.138C196.384 30.965 196.471 30.7488 196.514 30.5325L200.103 19.8506C200.147 19.6776 200.319 19.5479 200.492 19.5479H201.011C201.184 19.5479 201.357 19.6776 201.401 19.8506L204.947 30.5325C205.077 30.9218 205.163 31.311 205.293 31.7002C205.336 31.5272 205.379 31.311 205.423 31.138C205.466 30.9218 205.509 30.7488 205.596 30.5325L209.012 19.9371C209.055 19.7208 209.272 19.5911 209.488 19.5911H210.439L205.942 32.9976H204.99C204.86 32.9976 204.731 32.9111 204.687 32.6949L201.011 21.7967C200.968 21.6669 200.925 21.5372 200.882 21.4075C200.838 21.2777 200.795 21.148 200.795 21.0182C200.752 21.148 200.752 21.2777 200.709 21.4075C200.665 21.5372 200.622 21.6669 200.579 21.7967L196.86 32.6949C196.86 32.8679 196.687 32.9976 196.514 32.9976H195.606L191.108 19.6343Z" fill="#3D4B63"/>
<path d="M218.137 19.4177C219.045 19.4177 219.91 19.5907 220.732 19.8934C221.467 20.1961 222.116 20.6718 222.635 21.2773C223.154 21.926 223.586 22.6612 223.846 23.4396C224.408 25.2992 224.408 27.2886 223.846 29.1482C223.586 29.9266 223.197 30.6618 222.635 31.3105C222.116 31.916 221.467 32.3917 220.689 32.6944C219.045 33.3431 217.186 33.3431 215.499 32.6944C214.764 32.3917 214.115 31.916 213.553 31.3105C212.991 30.6618 212.602 29.9266 212.342 29.1482C211.78 27.2886 211.78 25.2992 212.342 23.4396C212.602 22.6612 212.991 21.926 213.553 21.2773C214.072 20.6718 214.721 20.1961 215.456 19.8934C216.364 19.5474 217.229 19.3744 218.137 19.4177ZM218.137 32.2187C218.872 32.2187 219.564 32.089 220.256 31.7863C220.862 31.5268 221.337 31.0943 221.77 30.6186C222.202 30.0564 222.505 29.4509 222.678 28.759C223.067 27.1588 223.067 25.4722 222.678 23.9153C222.505 23.2234 222.202 22.6179 221.77 22.0557C221.381 21.5368 220.862 21.1475 220.256 20.8448C218.916 20.2826 217.402 20.2826 216.061 20.8448C215.456 21.1043 214.937 21.5368 214.548 22.0557C214.115 22.6179 213.812 23.2666 213.639 23.9153C213.25 25.5155 213.25 27.2021 213.639 28.759C213.812 29.4509 214.115 30.0564 214.548 30.6186C214.937 31.1376 215.456 31.5268 216.061 31.7863C216.667 32.089 217.402 32.2187 218.137 32.2187Z" fill="#3D4B63"/>
<path d="M227.738 33.0404V19.6339H228.43C228.559 19.6339 228.646 19.6772 228.776 19.7204C228.862 19.8069 228.905 19.9367 228.905 20.0664L228.992 22.8774C229.338 21.8828 229.943 21.0178 230.722 20.3259C231.457 19.7204 232.408 19.3744 233.403 19.4177C233.792 19.4177 234.138 19.4609 234.528 19.5474C234.874 19.6339 235.176 19.7637 235.479 19.9366L235.306 20.8016C235.306 20.9313 235.176 21.0178 235.047 21.0178C234.96 21.0178 234.874 20.9746 234.83 20.9746L234.441 20.8448C234.268 20.8016 234.095 20.7583 233.879 20.7151C233.619 20.6718 233.403 20.6718 233.144 20.6718C232.235 20.6286 231.327 20.9746 230.635 21.6233C229.9 22.4017 229.338 23.3099 229.035 24.3478V33.0837H227.738V33.0404Z" fill="#3D4B63"/>
<path d="M240.02 13.4062V25.3856H240.626C240.755 25.3856 240.885 25.3856 240.971 25.3424C241.101 25.2991 241.231 25.2126 241.361 25.0829L246.767 19.9798C246.853 19.8933 246.94 19.8068 247.069 19.7203C247.199 19.6338 247.329 19.6338 247.459 19.6338H248.583L242.658 25.2559L242.399 25.5154C242.312 25.6019 242.226 25.6451 242.139 25.7316C242.269 25.8181 242.399 25.9046 242.485 25.9911C242.572 26.0776 242.701 26.2073 242.788 26.3371L248.972 33.1268H247.848C247.718 33.1268 247.631 33.0836 247.502 33.0403C247.372 32.9971 247.286 32.9106 247.199 32.7808L241.577 26.7263C241.447 26.5965 241.317 26.4668 241.144 26.3803C240.971 26.2938 240.755 26.2938 240.539 26.2938H240.02V33.0836H238.723V13.4062H240.02Z" fill="#3D4B63"/>
<path d="M259.395 21.2779C259.351 21.4076 259.222 21.4941 259.092 21.4508C258.962 21.4508 258.832 21.3644 258.703 21.2779C258.486 21.1481 258.313 21.0184 258.097 20.8886C257.795 20.7157 257.492 20.5859 257.146 20.4994C256.713 20.3697 256.238 20.3264 255.762 20.3264C255.329 20.3264 254.854 20.3697 254.421 20.5427C254.032 20.6724 253.686 20.8454 253.383 21.1049C253.124 21.3211 252.864 21.6238 252.735 21.9266C252.562 22.2293 252.475 22.5753 252.518 22.9212C252.518 23.3105 252.605 23.6564 252.864 23.9592C253.081 24.2619 253.383 24.4781 253.729 24.6944C254.119 24.9106 254.508 25.0836 254.94 25.2133L256.324 25.6458C256.8 25.7755 257.232 25.9485 257.708 26.1215C258.14 26.2945 258.53 26.5107 258.919 26.7702C259.265 27.0297 259.568 27.3324 259.784 27.7216C260 28.1541 260.13 28.6298 260.13 29.1055C260.13 29.6677 260.043 30.23 259.827 30.7489C259.611 31.2246 259.308 31.7003 258.919 32.0463C258.486 32.4355 257.967 32.7383 257.449 32.9113C256.8 33.1275 256.151 33.2572 255.459 33.2572C254.637 33.3005 253.773 33.1275 252.994 32.8248C252.345 32.522 251.697 32.1328 251.178 31.6571L251.48 31.1814C251.524 31.1381 251.567 31.0516 251.61 31.0084C251.697 30.9652 251.74 30.9652 251.826 30.9652C251.999 30.9652 252.129 31.0516 252.259 31.1814C252.475 31.3544 252.691 31.5274 252.908 31.6571C253.254 31.8301 253.556 32.0031 253.946 32.1328C254.421 32.3058 254.94 32.3491 255.459 32.3491C255.978 32.3491 256.454 32.2626 256.973 32.0896C257.362 31.9598 257.751 31.7436 258.054 31.4409C258.357 31.1814 258.573 30.8354 258.703 30.4894C258.832 30.1435 258.919 29.711 258.919 29.3218C258.919 28.9326 258.832 28.5433 258.573 28.1974C258.357 27.8946 258.054 27.6351 257.708 27.4189C257.319 27.2027 256.93 27.0297 256.497 26.9L255.113 26.4675C254.637 26.3377 254.162 26.1648 253.729 25.9918C253.297 25.8188 252.908 25.6025 252.518 25.3431C252.172 25.0836 251.87 24.7809 251.653 24.3916C251.437 23.9592 251.307 23.4835 251.307 23.0077C251.307 22.532 251.394 22.0563 251.61 21.6238C251.826 21.1914 252.129 20.8021 252.475 20.4562C252.908 20.1102 253.34 19.8507 253.859 19.6777C254.464 19.4615 255.07 19.375 255.719 19.375C256.454 19.375 257.189 19.5047 257.881 19.721C258.53 19.9805 259.092 20.3264 259.611 20.8021L259.395 21.2779Z" fill="#3D4B63"/>
<path d="M11.9794 28.9321C11.9361 28.9321 11.8496 28.9321 11.8064 28.8889L0.172987 21.8396C0.0432468 21.7531 0 21.6666 0 21.5369V8.38985C0 8.26011 0.0432468 8.17362 0.172987 8.08712C0.259481 8.04388 0.389222 8.04388 0.518962 8.08712L12.0226 14.8336C12.1091 14.8769 12.1956 15.0066 12.1956 15.0931L12.3253 28.5429C12.3253 28.6726 12.2821 28.7591 12.1524 28.8456C12.0659 28.9321 12.0226 28.9321 11.9794 28.9321ZM0.648703 21.3639L11.6334 28.0239L11.5037 15.3526L0.648703 8.99531V21.3639Z" fill="#689EC1"/>
<path d="M11.9795 28.629C11.8497 28.629 11.7633 28.5858 11.72 28.4561C11.6335 28.2831 11.6768 28.1101 11.8497 28.0236L18.3368 24.2179L21.71 22.2718C21.883 22.1853 22.056 22.2285 22.1425 22.4015C22.229 22.5745 22.1857 22.7475 22.0128 22.834L12.1525 28.5426C12.1092 28.5858 12.0227 28.629 11.9795 28.629Z" fill="#689EC1"/>
<path d="M23.5694 48.5227C23.5262 48.5227 23.4397 48.5227 23.3964 48.4794L11.9793 41.6897C11.8928 41.6464 11.8063 41.5167 11.8063 41.4302L11.6333 28.6291C11.6333 28.4994 11.6765 28.4129 11.8063 28.3264C11.8928 28.2831 12.0225 28.2831 12.1523 28.3264L23.6559 34.7702C23.7424 34.8134 23.8289 34.9431 23.8289 35.0729L23.9154 48.1767C23.9154 48.3064 23.8722 48.3929 23.7424 48.4794C23.6559 48.4794 23.6127 48.5227 23.5694 48.5227ZM12.455 41.2139L23.2235 47.6145L23.137 35.2459L12.3253 29.1913L12.455 41.2139Z" fill="#689EC1"/>
<path d="M25.602 48.4795C25.5587 48.4795 25.4722 48.4795 25.429 48.4363C25.3425 48.393 25.256 48.2633 25.256 48.1768L25.083 35.073C25.083 34.9433 25.1263 34.8568 25.256 34.7703L36.7597 28.1535C36.8461 28.1103 36.9759 28.1103 37.1056 28.1535C37.1921 28.1968 37.2786 28.3265 37.2786 28.4563L36.9759 41.4736C36.9759 41.6033 36.9326 41.6898 36.8029 41.733L25.775 48.4363C25.7317 48.4795 25.6885 48.4795 25.602 48.4795ZM25.775 35.246L25.9479 47.5714L36.3272 41.2573L36.5867 28.9752L25.775 35.246Z" fill="#6DB56D"/>
<path d="M36.803 28.4569C36.7598 28.4569 36.6733 28.4569 36.63 28.4136L30.0997 24.6512H30.0565L26.6832 22.7051C26.5103 22.6186 26.467 22.4023 26.5535 22.2726C26.64 22.0996 26.8562 22.0564 26.986 22.1429L36.9327 27.8514C37.1057 27.9379 37.149 28.1542 37.0625 28.2839C37.0192 28.4136 36.8895 28.4569 36.803 28.4569Z" fill="#6DB56D"/>
<path d="M37.0194 28.5426C36.9762 28.5426 36.8897 28.5426 36.8465 28.4994C36.76 28.4561 36.6735 28.3264 36.6735 28.2399L36.5005 15.0496C36.5005 14.9198 36.5437 14.8334 36.6735 14.7469L48.0041 8.13009C48.0906 8.08684 48.2204 8.08684 48.3501 8.13009C48.4366 8.17334 48.5231 8.30308 48.5231 8.43282V21.6231C48.5231 21.7528 48.4799 21.8393 48.3501 21.8826L37.1924 28.4994C37.1492 28.5426 37.1059 28.5426 37.0194 28.5426ZM37.1924 15.2226L37.3222 27.6777L47.8312 21.4069V8.95178L37.1924 15.2226Z" fill="#6DB56D"/>
<path d="M36.1543 13.4934C36.111 13.4934 36.0245 13.4934 35.9813 13.4501L24.5641 6.96309C24.4776 6.91985 24.3911 6.7901 24.3911 6.66036C24.3911 6.53062 24.4776 6.44413 24.5641 6.35764L36.1543 0.130091C36.2407 0.0868445 36.3705 0.0868445 36.457 0.130091L47.6147 6.18465C47.7012 6.2279 47.7877 6.35764 47.7877 6.44413C47.7877 6.57387 47.7444 6.66036 47.6147 6.74686L36.3272 13.4501C36.2407 13.4934 36.1975 13.4934 36.1543 13.4934ZM25.429 6.70361L36.1543 12.8014L46.8362 6.44413L36.3272 0.778794L25.429 6.70361Z" fill="#EB822F"/>
<path d="M24.5211 18.5964C24.3481 18.5964 24.2183 18.4667 24.1751 18.2937V14.4015C24.1751 14.4015 24.1751 14.4015 24.1751 14.3582L24.1318 6.83328C24.1318 6.66029 24.2616 6.4873 24.4346 6.4873C24.6076 6.4873 24.7373 6.61705 24.7805 6.79003L24.8238 18.2504C24.8238 18.4667 24.694 18.5964 24.5211 18.5964Z" fill="#EB822F"/>
<path d="M13.0605 13.6228C13.0173 13.6228 12.9308 13.6228 12.8875 13.5795L1.47035 7.09248C1.38386 7.04923 1.29736 6.91949 1.29736 6.78975C1.29736 6.66001 1.34061 6.57352 1.47035 6.48703L13.0605 0C13.1902 0 13.32 0 13.4065 0.0432468L24.5642 6.40053C24.6507 6.44378 24.7372 6.57352 24.7372 6.66001C24.7372 6.74651 24.6939 6.87625 24.5642 6.96274L13.2335 13.5795C13.1902 13.6228 13.147 13.6228 13.0605 13.6228ZM2.33529 6.833L13.0605 12.9741L23.7857 6.70326L13.2335 0.691949L2.33529 6.833Z" fill="#EB822F"/>
</svg>
